# Blender 4.3.1
# www.blender.org
mtllib AnimeTreeLeaves.mtl
o Cube
v -1.402458 1.434208 1.195408
v -1.450129 3.750557 1.216108
v -1.346699 1.593847 -0.967544
v -1.500400 3.651186 -1.123299
v 0.800701 1.540138 1.114215
v 0.863814 3.612220 1.142649
v 0.615568 1.622821 -0.958315
v 0.737862 3.639323 -1.054923
v -1.812419 1.190137 0.075577
v -1.702384 4.008463 0.070223
v 1.003915 1.252437 0.039565
v 1.142245 3.887838 0.033183
v -1.618147 2.613535 1.371482
v -1.659872 2.581327 -1.256520
v 1.016866 2.575088 -1.344765
v 1.063337 2.572741 1.399975
v 1.454759 2.538833 0.046404
v -2.074329 2.570280 0.110415
v -1.676059 1.269872 0.652533
v 1.116866 3.877328 0.612487
v -1.676921 3.956973 0.735181
v 0.938307 1.382054 0.590666
v -2.021177 2.572855 0.670714
v 1.532238 2.505338 0.639500
v -1.633162 3.884087 -0.612370
v 0.837494 1.436415 -0.504141
v -1.656286 1.352269 -0.501409
v 0.981905 3.815791 -0.554942
v 1.500021 2.578715 -0.683329
v -1.948799 2.599837 -0.641024
v -1.532334 3.197195 1.355130
v -1.633874 3.183803 -1.305724
v 0.906615 3.160527 -1.248726
v 0.992081 3.053405 1.331663
v 1.562564 3.241752 0.010947
v -1.907007 3.208324 0.059120
v -1.913085 3.221696 0.721720
v 1.511005 3.214025 0.589749
v 1.346241 3.222332 -0.695518
v -1.835563 3.186515 -0.664270
v -1.670885 1.993408 -1.251186
v 0.908499 2.008710 -1.261139
v 1.022037 2.037645 1.248680
v 1.325567 1.900845 0.051095
v -2.130814 1.899771 0.110324
v -1.615402 1.951843 1.404704
v 1.366530 1.931675 0.623911
v -1.983760 1.899029 0.708183
v -1.971481 1.988780 -0.589629
v 1.312106 1.944530 -0.630884
v -0.280018 1.289268 -1.084885
v -0.306005 3.830604 -1.315508
v -0.286005 1.173918 1.459165
v -0.280979 4.004394 1.404936
v -0.326207 4.828438 -0.023291
v -0.259109 0.936700 -0.039882
v -0.263116 2.611446 1.969147
v -0.368006 2.568157 -1.801637
v -0.310517 4.674341 0.665208
v -0.273712 1.051532 0.597124
v -0.297135 0.956254 -0.513327
v -0.303154 4.614877 -0.718999
v -0.271881 3.290047 1.773040
v -0.360904 3.200433 -1.749966
v -0.329395 1.994104 -1.588996
v -0.247270 1.900570 1.938966
v 0.252255 3.768559 -1.280891
v 0.282911 1.301924 1.331082
v 0.324664 4.598119 -0.011262
v 0.250097 2.583002 -1.556179
v 0.359579 4.479756 0.652905
v 0.305080 4.217403 -0.648160
v 0.284888 3.206254 -1.572459
v 0.252563 2.015258 -1.526453
v 0.249204 1.436555 -1.188773
v 0.377765 3.907600 1.359277
v 0.354385 1.011077 0.029298
v 0.294420 2.578312 1.961082
v 0.344665 1.126337 0.619815
v 0.246302 1.070808 -0.539026
v 0.333538 3.260936 1.803213
v 0.347913 1.949408 1.706485
v -0.875038 1.404474 -1.178620
v -0.907279 3.936924 1.376558
v -0.863042 1.088204 0.018591
v -0.866062 2.637387 1.809898
v -0.944314 1.132415 0.677699
v -0.844932 0.961703 -0.565465
v -0.887477 3.242179 1.807550
v -0.892863 1.937971 1.909056
v -0.961727 3.865869 -1.361556
v -0.899779 1.252180 1.449341
v -1.025618 4.589768 0.043097
v -0.946434 2.576975 -1.685377
v -1.084771 4.468089 0.732154
v -1.034924 4.486869 -0.661732
v -0.992030 3.211195 -1.703684
v -0.914089 1.949301 -1.524248
vn -0.8897 0.3217 -0.3240
vn 0.4534 0.4472 -0.7710
vn 0.7249 0.3874 0.5696
vn -0.4814 0.3839 0.7880
vn 0.4421 -0.8454 0.2998
vn -0.4791 0.6453 0.5951
vn -0.6778 0.7203 -0.1473
vn 0.4287 -0.8546 -0.2931
vn 0.7971 0.5401 -0.2701
vn -0.9610 0.2755 0.0219
vn -0.9852 0.0187 0.1703
vn 0.9704 -0.2415 0.0076
vn -0.5369 0.0911 0.8387
vn 0.8260 -0.2316 0.5140
vn 0.3142 -0.1234 -0.9413
vn -0.9079 0.0057 -0.4192
vn 0.9671 -0.2345 -0.0988
vn -0.8754 -0.0007 0.4833
vn -0.8264 0.2532 0.5030
vn -0.6492 0.7563 0.0806
vn 0.3652 -0.9050 0.2182
vn 0.8480 0.5249 0.0737
vn -0.9807 0.0531 -0.1881
vn 0.7908 -0.2581 -0.5550
vn 0.6684 0.5031 -0.5477
vn 0.5356 -0.7080 -0.4604
vn -0.5786 0.6169 -0.5335
vn -0.9563 0.2651 -0.1232
vn -0.9684 0.2140 -0.1282
vn 0.7736 0.2070 -0.5989
vn 0.9977 -0.0627 -0.0253
vn -0.8566 0.1207 0.5017
vn -0.9773 0.2092 0.0349
vn 0.9926 0.0297 -0.1178
vn -0.5387 0.0424 0.8414
vn 0.8262 0.1189 0.5506
vn 0.3612 0.0838 -0.9287
vn -0.9276 0.0865 -0.3635
vn 0.5429 -0.6936 -0.4734
vn -0.8601 -0.4165 -0.2944
vn -0.7570 -0.4526 0.4714
vn 0.8423 -0.5307 0.0942
vn -0.6576 -0.5789 -0.4822
vn 0.4345 -0.5870 -0.6831
vn 0.7351 -0.5247 0.4293
vn -0.5155 -0.4821 0.7084
vn 0.7927 -0.5679 -0.2218
vn -0.8732 -0.4245 0.2392
vn 0.3239 -0.5174 0.7921
vn -0.0133 -0.5629 -0.8264
vn -0.1328 0.0221 -0.9909
vn -0.0049 0.2518 0.9678
vn 0.3217 0.6611 -0.6778
vn -0.0184 -0.8365 -0.5476
vn -0.1669 -0.9800 0.1079
vn 0.3014 0.9368 0.1774
vn -0.1375 -0.3016 -0.9435
vn 0.2029 -0.1935 0.9599
vn -0.1338 -0.9857 0.1022
vn 0.4344 0.8230 -0.3659
vn 0.1917 0.7476 0.6358
vn -0.1136 -0.9825 0.1479
vn 0.0613 0.5102 0.8578
vn 0.0183 0.5163 -0.8562
vn 0.5953 0.4057 0.6936
vn 0.5649 0.6295 0.5335
vn 0.5787 0.7337 -0.3562
vn 0.5661 -0.2661 0.7802
vn 0.6384 0.7661 0.0745
vn 0.4689 0.7155 -0.5179
vn 0.5941 0.1693 0.7863
vn 0.5299 -0.4520 0.7175
vn 0.0517 -0.5464 -0.8359
vn 0.3171 0.0162 -0.9483
vn 0.1506 -0.8591 -0.4891
vn 0.1045 -0.9771 0.1852
vn 0.2494 -0.1925 -0.9491
vn 0.1640 -0.9816 -0.0977
vn 0.1817 -0.9646 0.1912
vn 0.1723 0.5099 -0.8428
vn -0.4953 0.4262 -0.7570
vn -0.2980 -0.9156 0.2700
vn -0.2732 -0.9594 -0.0704
vn -0.4307 -0.1299 -0.8931
vn -0.1383 -0.9848 0.1049
vn -0.4380 -0.7036 -0.5596
vn -0.5193 -0.0548 -0.8528
vn -0.3882 -0.6098 -0.6910
vn -0.0768 -0.5505 0.8313
vn -0.1034 0.1496 0.9833
vn -0.0511 0.6758 -0.7353
vn -0.2692 0.9459 0.1809
vn -0.1472 0.0495 0.9879
vn -0.2598 0.9414 -0.2153
vn -0.1264 0.7398 0.6609
vn -0.0414 0.4922 0.8695
vt 0.000000 0.000000
vt 1.000000 0.000000
vt 1.000000 1.000000
vt 0.000000 1.000000
s 0
f 40/1/1 25/2/1 4/3/1 32/4/1
f 73/1/2 67/2/2 8/3/2 33/4/2
f 38/1/3 20/2/3 6/3/3 34/4/3
f 89/1/4 84/2/4 2/3/4 31/4/4
f 79/1/5 22/2/5 5/3/5 68/4/5
f 95/1/6 21/2/6 2/3/6 84/4/6
f 96/1/7 25/2/7 10/3/7 93/4/7
f 80/1/8 26/2/8 11/3/8 77/4/8
f 39/1/9 28/2/9 12/3/9 35/4/9
f 37/1/10 21/2/10 10/3/10 36/4/10
f 48/1/11 23/2/11 18/3/11 45/4/11
f 50/1/12 29/2/12 17/3/12 44/4/12
f 90/1/13 86/2/13 13/3/13 46/4/13
f 47/1/14 24/2/14 16/3/14 43/4/14
f 74/1/15 70/2/15 15/3/15 42/4/15
f 49/1/16 30/2/16 14/3/16 41/4/16
f 44/1/17 17/2/17 24/3/17 47/4/17
f 46/1/18 13/2/18 23/3/18 48/4/18
f 31/1/19 2/2/19 21/3/19 37/4/19
f 93/1/20 10/2/20 21/3/20 95/4/20
f 77/1/21 11/2/21 22/3/21 79/4/21
f 35/1/22 12/2/22 20/3/22 38/4/22
f 45/1/23 18/2/23 30/3/23 49/4/23
f 42/1/24 15/2/24 29/3/24 50/4/24
f 33/1/25 8/2/25 28/3/25 39/4/25
f 75/1/26 7/2/26 26/3/26 80/4/26
f 91/1/27 4/2/27 25/3/27 96/4/27
f 36/1/28 10/2/28 25/3/28 40/4/28
f 18/1/29 36/2/29 40/3/29 30/4/29
f 15/1/30 33/2/30 39/3/30 29/4/30
f 17/1/31 35/2/31 38/3/31 24/4/31
f 13/1/32 31/2/32 37/3/32 23/4/32
f 23/1/33 37/2/33 36/3/33 18/4/33
f 29/1/34 39/2/34 35/3/34 17/4/34
f 86/1/35 89/2/35 31/3/35 13/4/35
f 24/1/36 38/2/36 34/3/36 16/4/36
f 70/1/37 73/2/37 33/3/37 15/4/37
f 30/1/38 40/2/38 32/3/38 14/4/38
f 7/1/39 42/2/39 50/3/39 26/4/39
f 9/1/40 45/2/40 49/3/40 27/4/40
f 1/1/41 46/2/41 48/3/41 19/4/41
f 11/1/42 44/2/42 47/3/42 22/4/42
f 27/1/43 49/2/43 41/3/43 3/4/43
f 75/1/44 74/2/44 42/3/44 7/4/44
f 22/1/45 47/2/45 43/3/45 5/4/45
f 92/1/46 90/2/46 46/3/46 1/4/46
f 26/1/47 50/2/47 44/3/47 11/4/47
f 19/1/48 48/2/48 45/3/48 9/4/48
f 68/1/49 82/2/49 66/3/49 53/4/49
f 83/1/50 98/2/50 65/3/50 51/4/50
f 94/1/51 97/2/51 64/3/51 58/4/51
f 78/1/52 81/2/52 63/3/52 57/4/52
f 67/1/53 52/2/53 62/3/53 72/4/53
f 83/1/54 51/2/54 61/3/54 88/4/54
f 85/1/55 56/2/55 60/3/55 87/4/55
f 69/1/56 55/2/56 59/3/56 71/4/56
f 98/1/57 94/2/57 58/3/57 65/4/57
f 82/1/58 78/2/58 57/3/58 66/4/58
f 88/1/59 61/2/59 56/3/59 85/4/59
f 72/1/60 62/2/60 55/3/60 69/4/60
f 71/1/61 59/2/61 54/3/61 76/4/61
f 87/1/62 60/2/62 53/3/62 92/4/62
f 81/1/63 76/2/63 54/3/63 63/4/63
f 97/1/64 91/2/64 52/3/64 64/4/64
f 34/1/65 6/2/65 76/3/65 81/4/65
f 20/1/66 71/2/66 76/3/66 6/4/66
f 28/1/67 72/2/67 69/3/67 12/4/67
f 43/1/68 16/2/68 78/3/68 82/4/68
f 12/1/69 69/2/69 71/3/69 20/4/69
f 8/1/70 67/2/70 72/3/70 28/4/70
f 16/1/71 34/2/71 81/3/71 78/4/71
f 5/1/72 43/2/72 82/3/72 68/4/72
f 51/1/73 65/2/73 74/3/73 75/4/73
f 58/1/74 64/2/74 73/3/74 70/4/74
f 51/1/75 75/2/75 80/3/75 61/4/75
f 56/1/76 77/2/76 79/3/76 60/4/76
f 65/1/77 58/2/77 70/3/77 74/4/77
f 61/1/78 80/2/78 77/3/78 56/4/78
f 60/1/79 79/2/79 68/3/79 53/4/79
f 64/1/80 52/2/80 67/3/80 73/4/80
f 32/1/81 4/2/81 91/3/81 97/4/81
f 19/1/82 87/2/82 92/3/82 1/4/82
f 27/1/83 88/2/83 85/3/83 9/4/83
f 41/1/84 14/2/84 94/3/84 98/4/84
f 9/1/85 85/2/85 87/3/85 19/4/85
f 3/1/86 83/2/86 88/3/86 27/4/86
f 14/1/87 32/2/87 97/3/87 94/4/87
f 3/1/88 41/2/88 98/3/88 83/4/88
f 53/1/89 66/2/89 90/3/89 92/4/89
f 57/1/90 63/2/90 89/3/90 86/4/90
f 52/1/91 91/2/91 96/3/91 62/4/91
f 55/1/92 93/2/92 95/3/92 59/4/92
f 66/1/93 57/2/93 86/3/93 90/4/93
f 62/1/94 96/2/94 93/3/94 55/4/94
f 59/1/95 95/2/95 84/3/95 54/4/95
f 63/1/96 54/2/96 84/3/96 89/4/96
